<?xml version="1.0" encoding="UTF-8"?>
<svg version="1.1" xmlns="http://www.w3.org/2000/svg" width="405" height="144">
<path d="M0 0 C2.27762739 1.4529692 4.09818394 3.06925654 5.8125 5.15625 C6.8025 3.17625 7.7925 1.19625 8.8125 -0.84375 C14.7525 -0.84375 20.6925 -0.84375 26.8125 -0.84375 C26.88065753 7.16318707 26.93553387 15.16989327 26.96793652 23.17704391 C26.98349914 26.89629771 27.00456198 30.61534034 27.03881836 34.33447266 C27.07175193 37.93308801 27.08942343 41.53150206 27.09713173 45.13025665 C27.10525785 47.15068713 27.12862094 49.17103821 27.15238953 51.19134521 C27.15412886 60.86620908 26.7657507 71.82241631 20.390625 79.6953125 C11.86858889 87.58452414 1.11830521 88.72556609 -9.94140625 88.47265625 C-18.28725832 88.02910307 -25.35221876 85.13741327 -31.1875 79.15625 C-34.1875 74.85625 -34.1875 74.85625 -34.1875 72.15625 C-32.13159546 71.28632846 -30.06744664 70.43587311 -28 69.59375 C-26.27716797 68.88025391 -26.27716797 68.88025391 -24.51953125 68.15234375 C-21.10435091 67.131393 -19.51533483 67.02525987 -16.1875 68.15625 C-15.548125 68.65125 -14.90875 69.14625 -14.25 69.65625 C-11.43689386 71.70214537 -9.67640471 72.02459322 -6.1875 72.15625 C-2.00386235 71.17559969 1.73600011 70.23274989 4.8125 67.15625 C5.95440685 63.91007456 5.91567503 60.82295275 5.875 57.40625 C5.86597656 56.42140625 5.85695312 55.4365625 5.84765625 54.421875 C5.83605469 53.67421875 5.82445312 52.9265625 5.8125 52.15625 C5.15894531 52.77113281 5.15894531 52.77113281 4.4921875 53.3984375 C-1.98173041 59.2557918 -7.3647747 60.71789487 -16.09375 60.5234375 C-24.52464986 59.5228004 -30.02166996 54.91348184 -35.49609375 48.73046875 C-39.67353257 42.3726577 -40.72117518 36.29730242 -40.625 28.78125 C-40.61670166 27.94489014 -40.60840332 27.10853027 -40.59985352 26.24682617 C-40.34091141 16.77839135 -37.77448646 9.76771155 -31.15234375 2.8515625 C-22.43372822 -4.67106004 -10.09558925 -5.19625917 0 0 Z M-17.828125 19.3984375 C-20.29572628 24.40454815 -19.80397021 29.71076316 -19.1875 35.15625 C-17.09974144 39.64106469 -14.79000108 42.27340865 -10.1875 44.15625 C-4.63363115 44.68518989 -0.90196597 44.44541231 3.8125 41.15625 C8.10024919 35.72510103 7.41475926 28.73091361 6.8125 22.15625 C5.53188284 18.02981694 4.63710887 16.73155851 1.125 14.28125 C-6.53345178 11.68026638 -12.73752018 12.44127758 -17.828125 19.3984375 Z " fill="#5B59C6" transform="translate(210.1875,48.84375)"/>
<path d="M0 0 C7.67718464 5.7704329 11.31043811 14.85515649 12.75390625 24.08203125 C13.02412191 27.30598357 12.98046875 30.54989969 12.98046875 33.78515625 C-2.52953125 33.78515625 -18.03953125 33.78515625 -34.01953125 33.78515625 C-30.96573393 41.39457713 -30.96573393 41.39457713 -27.33203125 43.78515625 C-21.72836183 45.47683004 -17.0698243 45.65842922 -11.64453125 43.34765625 C-10.77828125 42.83203125 -9.91203125 42.31640625 -9.01953125 41.78515625 C-4.8430917 40.39300973 -2.18515332 42.07851359 1.66796875 43.72265625 C2.36986328 44.01333984 3.07175781 44.30402344 3.79492188 44.60351562 C5.5269765 45.32225938 7.25420656 46.05260956 8.98046875 46.78515625 C4.31722531 54.29874175 -1.99352045 58.84054895 -10.51953125 61.3125 C-20.29287829 63.16027342 -30.02104975 62.03380638 -39.01953125 57.78515625 C-46.69381495 52.52072175 -52.25881768 46.11693816 -54.01953125 36.78515625 C-54.79925791 24.4884834 -54.4286084 14.90954115 -46.39453125 4.97265625 C-34.39412127 -7.72440674 -14.6098646 -8.7885259 0 0 Z M-30.01953125 12.78515625 C-31.79981581 14.99550955 -34.01953125 17.84392841 -34.01953125 20.78515625 C-25.10953125 20.78515625 -16.19953125 20.78515625 -7.01953125 20.78515625 C-7.36147306 14.89691017 -7.36147306 14.89691017 -10.58203125 12.47265625 C-17.21265139 9.21762455 -23.68500151 8.60885124 -30.01953125 12.78515625 Z " fill="#2E51B9" transform="translate(152.01953125,51.21484375)"/>
<path d="M0 0 C3.56484465 0.03059952 4.81689559 0.05660648 7.8125 2.125 C9.1875 4.3125 9.1875 4.3125 9.1875 7.3125 C13.8075 7.3125 18.4275 7.3125 23.1875 7.3125 C24.1775 9.9525 25.1675 12.5925 26.1875 15.3125 C27.05375 14.219375 27.92 13.12625 28.8125 12 C31.66636249 8.7137341 33.97459404 6.71680199 38.1875 5.3125 C41.1575 5.3125 44.1275 5.3125 47.1875 5.3125 C47.1875 11.9125 47.1875 18.5125 47.1875 25.3125 C44.22526042 25.47526042 41.26302083 25.63802083 38.30078125 25.80078125 C34.8151524 26.37370142 32.91760864 27.07008152 30.1875 29.3125 C28.17099257 34.01974723 27.852876 38.50268956 27.7734375 43.5546875 C27.75407135 44.32305939 27.7347052 45.09143127 27.7147522 45.88308716 C27.65535883 48.31778138 27.60873372 50.75252393 27.5625 53.1875 C27.52428307 54.84637386 27.48522921 56.50522867 27.4453125 58.1640625 C27.34969093 62.21338542 27.26551299 66.26280113 27.1875 70.3125 C21.39329587 70.45776075 15.59902775 70.60002037 9.8046875 70.73974609 C7.8421032 70.78746559 5.87953713 70.83594207 3.91699219 70.88525391 C-2.65915746 71.05016247 -9.2353811 71.19238611 -15.8125 71.3125 C-16.69828735 71.33022461 -17.58407471 71.34794922 -18.4967041 71.36621094 C-20.98999641 71.41199585 -23.48299233 71.44299256 -25.9765625 71.46875 C-26.71425873 71.4836145 -27.45195496 71.498479 -28.21200562 71.51379395 C-32.24805694 71.53642924 -34.08238553 71.17755723 -37.8125 69.3125 C-37.8125 64.6925 -37.8125 60.0725 -37.8125 55.3125 C-36.4925 54.6525 -35.1725 53.9925 -33.8125 53.3125 C-34.1425 51.6625 -34.4725 50.0125 -34.8125 48.3125 C-35.8025 47.9825 -36.7925 47.6525 -37.8125 47.3125 C-37.89325665 45.02140403 -37.95157731 42.72950733 -38 40.4375 C-38.03480469 39.16132812 -38.06960937 37.88515625 -38.10546875 36.5703125 C-38.00878906 35.49523437 -37.91210938 34.42015625 -37.8125 33.3125 C-34.58458445 31.1605563 -33.52849191 31.11163557 -29.8125 31.3125 C-29.9775 30.4875 -30.1425 29.6625 -30.3125 28.8125 C-29.62770211 24.01891479 -27.28550465 22.10479912 -23.953125 18.75390625 C-21.8125 17.3125 -21.8125 17.3125 -19.67578125 17.546875 C-19.06089844 17.79953125 -18.44601563 18.0521875 -17.8125 18.3125 C-15.79741642 19.04573796 -15.79741642 19.04573796 -13.8125 19.3125 C-12.8225 18.6525 -11.8325 17.9925 -10.8125 17.3125 C-10.33519038 13.58948497 -10.6737739 12.52058915 -12.8125 9.3125 C-11.66709775 7.99962379 -10.52116567 6.68720979 -9.375 5.375 C-8.73691406 4.64410156 -8.09882812 3.91320313 -7.44140625 3.16015625 C-4.82537539 0.1928119 -4.02273364 0.11190621 0 0 Z M-0.8125 5.3125 C-2.47891006 6.303255 -2.47891006 6.303255 -3.8125 8.3125 C-3.8125 10.26840254 -3.80649944 12.22511522 -3.734375 14.1796875 C-3.86711933 17.80360761 -5.04238552 20.15158128 -6.8125 23.3125 C-10.64404966 25.87521405 -14.04103725 25.36307139 -18.47265625 25.08984375 C-20.90156074 25.0991743 -20.90156074 25.0991743 -22.62109375 26.81640625 C-23.01425781 27.31011719 -23.40742188 27.80382812 -23.8125 28.3125 C-22.22157948 32.44889336 -19.20775082 35.54463248 -15.8125 38.3125 C-15.1525 38.3125 -14.4925 38.3125 -13.8125 38.3125 C-13.8125 38.9725 -13.8125 39.6325 -13.8125 40.3125 C-12.42957981 41.71072971 -12.42957981 41.71072971 -10.5625 43.1875 C-6.03595307 47.01515458 -1.90190581 51.16416877 2.23730469 55.39990234 C3.5370155 56.7210647 4.86013945 58.01911988 6.1875 59.3125 C6.5175 59.3125 6.8475 59.3125 7.1875 59.3125 C7.31437837 52.71073957 7.40188377 46.109294 7.4621582 39.5065918 C7.48728723 37.26102956 7.52139615 35.015549 7.56469727 32.77026367 C7.62541776 29.54064782 7.65372631 26.31211416 7.67578125 23.08203125 C7.70158768 22.07977005 7.7273941 21.07750885 7.75398254 20.0448761 C7.76942378 14.21308679 7.76942378 14.21308679 4.84448242 9.2644043 C2.99072438 7.90257433 1.1013965 6.588431 -0.8125 5.3125 Z M-32.8125 37.3125 C-32.45650015 40.51649868 -32.17029258 41.96588844 -29.8125 44.25 C-27.18602925 46.95854796 -26.959347 48.56790144 -26.8125 52.3125 C-27.75 56.1875 -27.75 56.1875 -28.8125 59.3125 C-30.1325 59.6425 -31.4525 59.9725 -32.8125 60.3125 C-32.8125 61.6325 -32.8125 62.9525 -32.8125 64.3125 C-21.5925 64.3125 -10.3725 64.3125 1.1875 64.3125 C-3.9595788 58.30757474 -9.1899354 52.54819259 -14.6875 46.875 C-15.97720703 45.49151367 -15.97720703 45.49151367 -17.29296875 44.08007812 C-21.61418391 39.37288897 -21.61418391 39.37288897 -27.22753906 36.71826172 C-29.65134027 36.64936792 -29.65134027 36.64936792 -32.8125 37.3125 Z " fill="#0A4BAF" transform="translate(46.8125,40.6875)"/>
<path d="M0 0 C19.83809719 -1.91910155 19.83809719 -1.91910155 24.94042969 1.17773438 C28.12981553 4.31181295 29.95837252 8.0461854 32 12 C32.66 12 33.32 12 34 12 C34.45890625 11.13375 34.9178125 10.2675 35.390625 9.375 C39.28081191 2.31382039 39.28081191 2.31382039 43 0 C50.16337714 -1.58009683 57.7601285 -0.73462987 65 0 C61.77479168 6.1716396 58.16233655 11.70804867 53.875 17.1875 C50.40367605 21.63540034 47.33708273 25.81812347 45 31 C45.34667725 31.47719482 45.69335449 31.95438965 46.05053711 32.44604492 C67 61.30567036 67 61.30567036 67 63 C47.36665405 65.39341239 47.36665405 65.39341239 41.92919922 61.52783203 C38.32787538 57.53158495 36.07103218 52.92823522 34 48 C30.25539098 49.24820301 30.04248773 50.72538376 28.29638672 54.06787109 C26.31237514 57.63664577 24.40856259 60.65656056 21 63 C13.86505766 64.79404235 6.23022974 63.86322607 -1 63 C0.55869636 58.28807883 3.1713878 54.78548656 6.125 50.875 C6.61129883 50.21773926 7.09759766 49.56047852 7.59863281 48.88330078 C9.87535142 45.80905796 12.17808121 42.76001598 14.5390625 39.75 C15.26867187 38.80125 15.99828125 37.8525 16.75 36.875 C17.40484375 36.04742187 18.0596875 35.21984375 18.734375 34.3671875 C20.35194146 31.34173913 19.93312707 30.24695405 19 27 C17.81520008 24.87864427 17.81520008 24.87864427 16.26953125 22.890625 C15.71330078 22.13523437 15.15707031 21.37984375 14.58398438 20.6015625 C13.99939453 19.82554688 13.41480469 19.04953125 12.8125 18.25 C11.67149887 16.71478753 10.53217186 15.17832938 9.39453125 13.640625 C8.55462646 12.50657227 8.55462646 12.50657227 7.69775391 11.34960938 C5.01847361 7.6416149 2.50047526 3.83007951 0 0 Z " fill="#B668E0" transform="translate(332,48)"/>
<path d="M0 0 C6.6 0 13.2 0 20 0 C20 5.28 20 10.56 20 16 C24.62 16 29.24 16 34 16 C34 20.95 34 25.9 34 31 C29.38 31 24.76 31 20 31 C20.07393149 35.0942752 20.15668649 39.1868422 20.26245117 43.28027344 C20.29572873 44.67306089 20.32375197 46.06598411 20.34643555 47.45898438 C20.37992689 49.45991378 20.43381305 51.46046921 20.48828125 53.4609375 C20.51446533 54.66540527 20.54064941 55.86987305 20.56762695 57.11083984 C20.71031006 58.0642627 20.85299316 59.01768555 21 60 C25.27846832 62.85231222 28.895631 62.60225696 34 63 C34 68.28 34 73.56 34 79 C30.12457723 79.0811135 26.25086118 79.1405605 22.375 79.1875 C21.28058594 79.21263672 20.18617188 79.23777344 19.05859375 79.26367188 C12.28877592 79.32521567 7.58145447 78.96396232 2.1875 74.5 C-0.87282711 70.63432366 -0.12635124 65.8325162 -0.09765625 61.17578125 C-0.0962413 60.31438034 -0.09482635 59.45297943 -0.09336853 58.56547546 C-0.0877714 55.81444831 -0.07521946 53.06350256 -0.0625 50.3125 C-0.05748463 48.4472668 -0.05292179 46.58203233 -0.04882812 44.71679688 C-0.03780292 40.14449989 -0.02054027 35.57226375 0 31 C-3.63 31 -7.26 31 -11 31 C-11 26.05 -11 21.1 -11 16 C-7.37 16 -3.74 16 0 16 C0 10.72 0 5.44 0 0 Z " fill="#7E5FD0" transform="translate(255,32)"/>
<path d="M0 0 C10.56 0 21.12 0 32 0 C32 20.79 32 41.58 32 63 C25.07 63 18.14 63 11 63 C11 47.16 11 31.32 11 15 C7.37 15 3.74 15 0 15 C0 10.05 0 5.1 0 0 Z " fill="#9963D7" transform="translate(294,48)"/>
<path d="M0 0 C2.97880495 1.81318562 4.56503397 3.28823741 6.375 6.25 C7.2422031 10.06569363 7.33066421 13.32994227 6 17 C3.61187154 20.26469584 0.93669611 22.51582597 -3.03125 23.5078125 C-8.08559986 23.79940961 -11.24495134 22.21861313 -15 19 C-17.37894125 15.97225659 -17.36588928 12.75211383 -17.24609375 8.9609375 C-16.87000831 5.96419323 -15.95941609 4.28598544 -14 2 C-9.27754696 -1.29473468 -5.3849185 -1.63212994 0 0 Z " fill="#9B64D8" transform="translate(321,15)"/>
</svg>
